<mxfile host="app.diagrams.net" modified="2023-05-15T20:57:32.549Z" agent="Mozilla/5.0 (Windows NT 10.0; Win64; x64) AppleWebKit/537.36 (KHTML, like Gecko) Chrome/113.0.0.0 Safari/537.36 Edg/113.0.1774.42" etag="MN_4TR1iPXRvCJ3JIaBa" version="21.2.2" type="device">
  <diagram name="Sayfa -1" id="6MFQ_VSFcB8eeqf3nIvv">
    <mxGraphModel dx="1199" dy="664" grid="1" gridSize="10" guides="1" tooltips="1" connect="1" arrows="1" fold="1" page="1" pageScale="1" pageWidth="3300" pageHeight="4681" math="0" shadow="0">
      <root>
        <mxCell id="0" />
        <mxCell id="1" parent="0" />
        <mxCell id="H4_aKOCLvgO4Zlpm34RD-1" value="Movie.cs" style="html=1;whiteSpace=wrap;" vertex="1" parent="1">
          <mxGeometry x="720" y="640" width="160" height="80" as="geometry" />
        </mxCell>
        <mxCell id="H4_aKOCLvgO4Zlpm34RD-3" value="" style="endArrow=none;html=1;rounded=0;exitX=0;exitY=0;exitDx=0;exitDy=0;" edge="1" parent="1" source="H4_aKOCLvgO4Zlpm34RD-1" target="H4_aKOCLvgO4Zlpm34RD-4">
          <mxGeometry width="50" height="50" relative="1" as="geometry">
            <mxPoint x="910" y="720" as="sourcePoint" />
            <mxPoint x="960" y="670" as="targetPoint" />
          </mxGeometry>
        </mxCell>
        <mxCell id="H4_aKOCLvgO4Zlpm34RD-4" value="name" style="ellipse;whiteSpace=wrap;html=1;" vertex="1" parent="1">
          <mxGeometry x="630" y="550" width="60" height="50" as="geometry" />
        </mxCell>
        <mxCell id="H4_aKOCLvgO4Zlpm34RD-6" value="" style="endArrow=none;html=1;rounded=0;exitX=0.25;exitY=0;exitDx=0;exitDy=0;" edge="1" parent="1" source="H4_aKOCLvgO4Zlpm34RD-1" target="H4_aKOCLvgO4Zlpm34RD-7">
          <mxGeometry width="50" height="50" relative="1" as="geometry">
            <mxPoint x="910" y="720" as="sourcePoint" />
            <mxPoint x="960" y="670" as="targetPoint" />
          </mxGeometry>
        </mxCell>
        <mxCell id="H4_aKOCLvgO4Zlpm34RD-7" value="genre" style="ellipse;whiteSpace=wrap;html=1;" vertex="1" parent="1">
          <mxGeometry x="700" y="540" width="60" height="50" as="geometry" />
        </mxCell>
        <mxCell id="H4_aKOCLvgO4Zlpm34RD-8" value="" style="endArrow=none;html=1;rounded=0;exitX=0.5;exitY=0;exitDx=0;exitDy=0;" edge="1" parent="1" source="H4_aKOCLvgO4Zlpm34RD-1" target="H4_aKOCLvgO4Zlpm34RD-9">
          <mxGeometry width="50" height="50" relative="1" as="geometry">
            <mxPoint x="910" y="720" as="sourcePoint" />
            <mxPoint x="960" y="670" as="targetPoint" />
          </mxGeometry>
        </mxCell>
        <mxCell id="H4_aKOCLvgO4Zlpm34RD-9" value="duration" style="ellipse;whiteSpace=wrap;html=1;" vertex="1" parent="1">
          <mxGeometry x="770" y="545" width="50" height="40" as="geometry" />
        </mxCell>
        <mxCell id="H4_aKOCLvgO4Zlpm34RD-12" value="Hall.cs" style="html=1;whiteSpace=wrap;" vertex="1" parent="1">
          <mxGeometry x="920" y="640" width="160" height="80" as="geometry" />
        </mxCell>
        <mxCell id="H4_aKOCLvgO4Zlpm34RD-13" value="Session.cs" style="html=1;whiteSpace=wrap;" vertex="1" parent="1">
          <mxGeometry x="720" y="760" width="160" height="80" as="geometry" />
        </mxCell>
        <mxCell id="H4_aKOCLvgO4Zlpm34RD-14" value="Reservation.cs" style="html=1;whiteSpace=wrap;" vertex="1" parent="1">
          <mxGeometry x="920" y="760" width="160" height="80" as="geometry" />
        </mxCell>
        <mxCell id="H4_aKOCLvgO4Zlpm34RD-15" value="" style="endArrow=none;html=1;rounded=0;exitX=0;exitY=0;exitDx=0;exitDy=0;" edge="1" parent="1" source="H4_aKOCLvgO4Zlpm34RD-12" target="H4_aKOCLvgO4Zlpm34RD-16">
          <mxGeometry width="50" height="50" relative="1" as="geometry">
            <mxPoint x="1000" y="750" as="sourcePoint" />
            <mxPoint x="1050" y="700" as="targetPoint" />
          </mxGeometry>
        </mxCell>
        <mxCell id="H4_aKOCLvgO4Zlpm34RD-16" value="number" style="ellipse;whiteSpace=wrap;html=1;" vertex="1" parent="1">
          <mxGeometry x="890" y="557.5" width="50" height="35" as="geometry" />
        </mxCell>
        <mxCell id="H4_aKOCLvgO4Zlpm34RD-17" value="" style="endArrow=none;html=1;rounded=0;exitX=0.25;exitY=0;exitDx=0;exitDy=0;" edge="1" parent="1" source="H4_aKOCLvgO4Zlpm34RD-12" target="H4_aKOCLvgO4Zlpm34RD-18">
          <mxGeometry width="50" height="50" relative="1" as="geometry">
            <mxPoint x="1000" y="750" as="sourcePoint" />
            <mxPoint x="1050" y="700" as="targetPoint" />
          </mxGeometry>
        </mxCell>
        <mxCell id="H4_aKOCLvgO4Zlpm34RD-18" value="seat_number" style="ellipse;whiteSpace=wrap;html=1;" vertex="1" parent="1">
          <mxGeometry x="950" y="557.5" width="80" height="30" as="geometry" />
        </mxCell>
        <mxCell id="H4_aKOCLvgO4Zlpm34RD-19" value="" style="endArrow=none;html=1;rounded=0;exitX=0.5;exitY=0;exitDx=0;exitDy=0;" edge="1" parent="1" source="H4_aKOCLvgO4Zlpm34RD-12" target="H4_aKOCLvgO4Zlpm34RD-20">
          <mxGeometry width="50" height="50" relative="1" as="geometry">
            <mxPoint x="1000" y="750" as="sourcePoint" />
            <mxPoint x="1050" y="700" as="targetPoint" />
          </mxGeometry>
        </mxCell>
        <mxCell id="H4_aKOCLvgO4Zlpm34RD-20" value="capacity" style="ellipse;whiteSpace=wrap;html=1;" vertex="1" parent="1">
          <mxGeometry x="1050" y="562.5" width="60" height="37.5" as="geometry" />
        </mxCell>
        <mxCell id="H4_aKOCLvgO4Zlpm34RD-21" value="" style="endArrow=none;html=1;rounded=0;exitX=0;exitY=1;exitDx=0;exitDy=0;" edge="1" parent="1" source="H4_aKOCLvgO4Zlpm34RD-13" target="H4_aKOCLvgO4Zlpm34RD-22">
          <mxGeometry width="50" height="50" relative="1" as="geometry">
            <mxPoint x="1000" y="750" as="sourcePoint" />
            <mxPoint x="1050" y="700" as="targetPoint" />
          </mxGeometry>
        </mxCell>
        <mxCell id="H4_aKOCLvgO4Zlpm34RD-22" value="number" style="ellipse;whiteSpace=wrap;html=1;" vertex="1" parent="1">
          <mxGeometry x="670" y="870" width="50" height="40" as="geometry" />
        </mxCell>
        <mxCell id="H4_aKOCLvgO4Zlpm34RD-24" value="" style="endArrow=none;html=1;rounded=0;exitX=0.25;exitY=1;exitDx=0;exitDy=0;" edge="1" parent="1" source="H4_aKOCLvgO4Zlpm34RD-13" target="H4_aKOCLvgO4Zlpm34RD-25">
          <mxGeometry width="50" height="50" relative="1" as="geometry">
            <mxPoint x="1000" y="900" as="sourcePoint" />
            <mxPoint x="1050" y="850" as="targetPoint" />
          </mxGeometry>
        </mxCell>
        <mxCell id="H4_aKOCLvgO4Zlpm34RD-25" value="subtitle" style="ellipse;whiteSpace=wrap;html=1;" vertex="1" parent="1">
          <mxGeometry x="740" y="880" width="50" height="30" as="geometry" />
        </mxCell>
        <mxCell id="H4_aKOCLvgO4Zlpm34RD-26" value="" style="endArrow=none;html=1;rounded=0;exitX=0.5;exitY=1;exitDx=0;exitDy=0;" edge="1" parent="1" source="H4_aKOCLvgO4Zlpm34RD-13" target="H4_aKOCLvgO4Zlpm34RD-27">
          <mxGeometry width="50" height="50" relative="1" as="geometry">
            <mxPoint x="1000" y="900" as="sourcePoint" />
            <mxPoint x="1050" y="850" as="targetPoint" />
          </mxGeometry>
        </mxCell>
        <mxCell id="H4_aKOCLvgO4Zlpm34RD-27" value="time" style="ellipse;whiteSpace=wrap;html=1;" vertex="1" parent="1">
          <mxGeometry x="810" y="880" width="50" height="30" as="geometry" />
        </mxCell>
        <mxCell id="H4_aKOCLvgO4Zlpm34RD-28" value="" style="endArrow=none;html=1;rounded=0;exitX=0;exitY=1;exitDx=0;exitDy=0;" edge="1" parent="1" source="H4_aKOCLvgO4Zlpm34RD-14" target="H4_aKOCLvgO4Zlpm34RD-29">
          <mxGeometry width="50" height="50" relative="1" as="geometry">
            <mxPoint x="1000" y="900" as="sourcePoint" />
            <mxPoint x="1050" y="850" as="targetPoint" />
          </mxGeometry>
        </mxCell>
        <mxCell id="H4_aKOCLvgO4Zlpm34RD-29" value="date" style="ellipse;whiteSpace=wrap;html=1;" vertex="1" parent="1">
          <mxGeometry x="895" y="860" width="40" height="30" as="geometry" />
        </mxCell>
        <mxCell id="H4_aKOCLvgO4Zlpm34RD-30" value="" style="endArrow=none;html=1;rounded=0;exitX=0.25;exitY=1;exitDx=0;exitDy=0;" edge="1" parent="1" source="H4_aKOCLvgO4Zlpm34RD-14" target="H4_aKOCLvgO4Zlpm34RD-31">
          <mxGeometry width="50" height="50" relative="1" as="geometry">
            <mxPoint x="1000" y="900" as="sourcePoint" />
            <mxPoint x="1050" y="850" as="targetPoint" />
          </mxGeometry>
        </mxCell>
        <mxCell id="H4_aKOCLvgO4Zlpm34RD-31" value="full_name" style="ellipse;whiteSpace=wrap;html=1;" vertex="1" parent="1">
          <mxGeometry x="940" y="890" width="60" height="30" as="geometry" />
        </mxCell>
        <mxCell id="H4_aKOCLvgO4Zlpm34RD-32" value="" style="endArrow=none;html=1;rounded=0;exitX=0.5;exitY=1;exitDx=0;exitDy=0;" edge="1" parent="1" source="H4_aKOCLvgO4Zlpm34RD-14" target="H4_aKOCLvgO4Zlpm34RD-33">
          <mxGeometry width="50" height="50" relative="1" as="geometry">
            <mxPoint x="1000" y="900" as="sourcePoint" />
            <mxPoint x="1050" y="850" as="targetPoint" />
          </mxGeometry>
        </mxCell>
        <mxCell id="H4_aKOCLvgO4Zlpm34RD-33" value="seat" style="ellipse;whiteSpace=wrap;html=1;" vertex="1" parent="1">
          <mxGeometry x="990" y="850" width="40" height="30" as="geometry" />
        </mxCell>
        <mxCell id="H4_aKOCLvgO4Zlpm34RD-34" value="" style="endArrow=none;html=1;rounded=0;exitX=0.75;exitY=1;exitDx=0;exitDy=0;" edge="1" parent="1" source="H4_aKOCLvgO4Zlpm34RD-14" target="H4_aKOCLvgO4Zlpm34RD-35">
          <mxGeometry width="50" height="50" relative="1" as="geometry">
            <mxPoint x="1000" y="900" as="sourcePoint" />
            <mxPoint x="1050" y="850" as="targetPoint" />
          </mxGeometry>
        </mxCell>
        <mxCell id="H4_aKOCLvgO4Zlpm34RD-35" value="payment_method" style="ellipse;whiteSpace=wrap;html=1;" vertex="1" parent="1">
          <mxGeometry x="1020" y="885" width="100" height="40" as="geometry" />
        </mxCell>
        <mxCell id="H4_aKOCLvgO4Zlpm34RD-36" value="«Program.cs»&lt;br&gt;&lt;br&gt;&lt;span style=&quot;background-color: initial;&quot;&gt;Enter name and surname&lt;/span&gt;&lt;br&gt;&lt;div&gt;Select date&lt;/div&gt;&lt;div&gt;Select movie&lt;/div&gt;&lt;div&gt;Select session&lt;/div&gt;&lt;div&gt;Enter how much tickets you want to buy&lt;/div&gt;&lt;div&gt;Select seat&lt;/div&gt;&lt;div&gt;Select payment method&lt;/div&gt;&lt;div&gt;Confirm payment and session details&lt;/div&gt;" style="html=1;whiteSpace=wrap;" vertex="1" parent="1">
          <mxGeometry x="1160" y="640" width="180" height="200" as="geometry" />
        </mxCell>
        <mxCell id="H4_aKOCLvgO4Zlpm34RD-41" value="" style="endArrow=classic;startArrow=classic;html=1;rounded=0;entryX=0.25;entryY=1;entryDx=0;entryDy=0;exitX=0.25;exitY=0;exitDx=0;exitDy=0;" edge="1" parent="1" source="H4_aKOCLvgO4Zlpm34RD-13" target="H4_aKOCLvgO4Zlpm34RD-1">
          <mxGeometry width="50" height="50" relative="1" as="geometry">
            <mxPoint x="990" y="840" as="sourcePoint" />
            <mxPoint x="1040" y="790" as="targetPoint" />
            <Array as="points">
              <mxPoint x="750" y="740" />
            </Array>
          </mxGeometry>
        </mxCell>
        <mxCell id="H4_aKOCLvgO4Zlpm34RD-42" value="" style="endArrow=classic;html=1;rounded=0;exitX=1;exitY=0.25;exitDx=0;exitDy=0;entryX=0;entryY=0.25;entryDx=0;entryDy=0;" edge="1" parent="1" source="H4_aKOCLvgO4Zlpm34RD-1" target="H4_aKOCLvgO4Zlpm34RD-12">
          <mxGeometry width="50" height="50" relative="1" as="geometry">
            <mxPoint x="990" y="840" as="sourcePoint" />
            <mxPoint x="1040" y="790" as="targetPoint" />
          </mxGeometry>
        </mxCell>
        <mxCell id="H4_aKOCLvgO4Zlpm34RD-43" value="" style="endArrow=classic;html=1;rounded=0;exitX=1;exitY=0;exitDx=0;exitDy=0;entryX=0;entryY=0.75;entryDx=0;entryDy=0;" edge="1" parent="1" source="H4_aKOCLvgO4Zlpm34RD-13" target="H4_aKOCLvgO4Zlpm34RD-12">
          <mxGeometry width="50" height="50" relative="1" as="geometry">
            <mxPoint x="990" y="840" as="sourcePoint" />
            <mxPoint x="1040" y="790" as="targetPoint" />
          </mxGeometry>
        </mxCell>
        <mxCell id="H4_aKOCLvgO4Zlpm34RD-44" value="" style="endArrow=classic;html=1;rounded=0;entryX=1;entryY=0.75;entryDx=0;entryDy=0;exitX=0;exitY=0.75;exitDx=0;exitDy=0;" edge="1" parent="1" source="H4_aKOCLvgO4Zlpm34RD-14" target="H4_aKOCLvgO4Zlpm34RD-13">
          <mxGeometry width="50" height="50" relative="1" as="geometry">
            <mxPoint x="990" y="840" as="sourcePoint" />
            <mxPoint x="1040" y="790" as="targetPoint" />
          </mxGeometry>
        </mxCell>
        <mxCell id="H4_aKOCLvgO4Zlpm34RD-45" value="" style="endArrow=classic;html=1;rounded=0;entryX=0.75;entryY=1;entryDx=0;entryDy=0;exitX=0.75;exitY=0;exitDx=0;exitDy=0;" edge="1" parent="1" source="H4_aKOCLvgO4Zlpm34RD-14" target="H4_aKOCLvgO4Zlpm34RD-12">
          <mxGeometry width="50" height="50" relative="1" as="geometry">
            <mxPoint x="990" y="840" as="sourcePoint" />
            <mxPoint x="1040" y="790" as="targetPoint" />
          </mxGeometry>
        </mxCell>
        <mxCell id="H4_aKOCLvgO4Zlpm34RD-46" value="" style="endArrow=classic;html=1;rounded=0;entryX=0.75;entryY=1;entryDx=0;entryDy=0;exitX=0.25;exitY=0;exitDx=0;exitDy=0;" edge="1" parent="1" source="H4_aKOCLvgO4Zlpm34RD-14" target="H4_aKOCLvgO4Zlpm34RD-1">
          <mxGeometry width="50" height="50" relative="1" as="geometry">
            <mxPoint x="990" y="840" as="sourcePoint" />
            <mxPoint x="1040" y="790" as="targetPoint" />
          </mxGeometry>
        </mxCell>
      </root>
    </mxGraphModel>
  </diagram>
</mxfile>
